<svg width="30" height="30" viewBox="0 0 30 30" xmlns="http://www.w3.org/2000/svg" xmlns:xlink="http://www.w3.org/1999/xlink"><title>Slice 1</title><defs><path id="a" d="M6.317.213v3.58h3.903v2.764H6.317v3.97c0 .898-.013 1.416.09 1.67.104.254.362.517.644.668.375.206.8.31 1.282.31.855 0 1.705-.256 2.55-.765v2.44c-.72.312-1.374.53-1.96.657-.584.125-1.216.188-1.896.188-.772 0-1.227-.09-1.82-.267-.594-.18-1.1-.436-1.518-.764-.42-.332-.71-.684-.87-1.056-.163-.373-.244-.914-.244-1.622v-5.43H.28v-2.19c.663-.2 1.433-.482 1.904-.85.475-.37.854-.813 1.14-1.33.286-.516.484-1.175.59-1.973h2.403"/></defs><g fill="none" fill-rule="evenodd"><circle fill="#34465D" cx="15" cy="15" r="15"/><use fill="#FFF" xlink:href="#a" transform="translate(9 6)"/></g></svg>